<?xml version="1.0" encoding="UTF-8"?>
<svg xmlns="http://www.w3.org/2000/svg" xmlns:xlink="http://www.w3.org/1999/xlink" width="93px" height="29px" viewBox="0 0 93 29" version="1.1">
<g id="surface1">
<path style=" stroke:none;fill-rule:nonzero;fill:rgb(100%,100%,100%);fill-opacity:1;" d="M 37.109375 0.472656 L 32.398438 28.054688 L 39.933594 28.054688 L 44.644531 0.472656 Z M 37.109375 0.472656 "/>
<path style=" stroke:none;fill-rule:nonzero;fill:rgb(100%,100%,100%);fill-opacity:1;" d="M 26.082031 0.503906 L 18.703125 19.3125 L 17.917969 16.472656 C 16.464844 13.050781 12.332031 8.136719 7.484375 5.039062 L 14.230469 28.042969 L 22.199219 28.027344 L 34.0625 0.5 Z M 26.082031 0.503906 "/>
<path style=" stroke:none;fill-rule:nonzero;fill:rgb(100%,100%,100%);fill-opacity:1;" d="M 15.058594 2.480469 C 14.621094 0.796875 13.351562 0.296875 11.777344 0.238281 L 0.0976562 0.238281 L 0 0.785156 C 9.089844 2.988281 15.101562 8.289062 17.597656 14.664062 Z M 15.058594 2.480469 "/>
<path style=" stroke:none;fill-rule:nonzero;fill:rgb(100%,100%,100%);fill-opacity:1;" d="M 59.914062 5.761719 C 62.378906 5.722656 64.164062 6.261719 65.550781 6.816406 L 66.230469 7.136719 L 67.25 1.15625 C 65.757812 0.597656 63.421875 0 60.503906 0 C 53.058594 0 47.8125 3.742188 47.769531 9.101562 C 47.722656 13.0625 51.507812 15.273438 54.367188 16.59375 C 57.304688 17.949219 58.289062 18.808594 58.273438 20.019531 C 58.25 21.863281 55.933594 22.710938 53.769531 22.710938 C 50.753906 22.710938 49.152344 22.296875 46.675781 21.265625 L 45.707031 20.824219 L 44.644531 27 C 46.410156 27.769531 49.660156 28.433594 53.039062 28.46875 C 60.957031 28.46875 66.105469 24.773438 66.15625 19.042969 C 66.191406 15.910156 64.179688 13.519531 59.828125 11.554688 C 57.191406 10.277344 55.582031 9.425781 55.597656 8.132812 C 55.597656 6.988281 56.964844 5.761719 59.914062 5.761719 Z M 59.914062 5.761719 "/>
<path style=" stroke:none;fill-rule:nonzero;fill:rgb(100%,100%,100%);fill-opacity:1;" d="M 86.582031 0.503906 L 80.761719 0.503906 C 78.957031 0.503906 77.609375 0.996094 76.816406 2.792969 L 65.632812 28.070312 L 73.542969 28.070312 C 73.542969 28.070312 74.832031 24.671875 75.125 23.925781 C 75.992188 23.925781 83.675781 23.9375 84.773438 23.9375 C 84.996094 24.902344 85.691406 28.070312 85.691406 28.070312 L 92.679688 28.070312 Z M 77.292969 18.28125 C 77.914062 16.699219 80.292969 10.574219 80.292969 10.574219 C 80.253906 10.648438 80.90625 8.976562 81.296875 7.941406 L 81.804688 10.316406 C 81.804688 10.316406 83.25 16.902344 83.550781 18.28125 Z M 77.292969 18.28125 "/>
</g>
</svg>
